PathFileType	4	(X/Y/Z)	./resultDataOpenSim/trcMotMarkerGrf/sub06/qtm-05-06.trc
DataRate	CameraRate	NumFrames	NumMarkers	Units	OrigDataRate	OrigDataStartFrame	OrigNumFrames
250.000000	250.000000	8	24	m	250.000000	131	521
Frame#	Time	L.Toe.Tip			R.Toe.Tip			L.Ankle.Lat			R.Ankle.Lat			L.Ankle.Med			R.Ankle.Med			L.Heel			R.Heel			L.Knee.Lat			R.Knee.Lat			L.Knee.Med			R.Knee.Med			L.Thigh.Upper			R.Thigh.Upper			L.ASIS			R.ASIS			V.Sacral			L.Acromium			R.Acromium			C7			L.Elbow			R.Elbow			L.Wrist.Lat			R.Wrist.Lat
		X1	Y1	Z1	X2	Y2	Z2	X3	Y3	Z3	X4	Y4	Z4	X5	Y5	Z5	X6	Y6	Z6	X7	Y7	Z7	X8	Y8	Z8	X9	Y9	Z9	X10	Y10	Z10	X11	Y11	Z11	X12	Y12	Z12	X13	Y13	Z13	X14	Y14	Z14	X15	Y15	Z15	X16	Y16	Z16	X17	Y17	Z17	X18	Y18	Z18	X19	Y19	Z19	X20	Y20	Z20	X21	Y21	Z21	X22	Y22	Z22	X23	Y23	Z23	X24	Y24	Z24

131	0.52	-0.19666484	0.060394605	-0.057375085	-0.76761453	0.035738936	0.092302775	-0.32428394	0.10007512	-0.080061553	-0.90029309	0.06604279	0.10567995	-0.32050124	0.1195127	0.0037114663	-0.87262835	0.08331003	0.020711052	-0.38812699	0.070090904	-0.027511683	-0.95346605	0.045235983	0.038189975	-0.39235049	0.47174027	-0.086875786	-0.72719627	0.41585121	0.14777584	-0.40681966	0.46131982	0.035179773	-0.75055807	0.4203	0.014422608	-0.59716432	0.80846118	-0.12977428	-0.67095722	0.78367342	0.21326838	-0.53881789	0.84921055	-0.074917071	-0.55231317	0.83470157	0.17227224	-0.73348148	0.91060778	0.045784863	-0.6246481	1.326443	-0.13343984	-0.59787354	1.3137068	0.22395498	-0.68968327	1.3530164	0.05148456	-0.73736189	1.0343927	-0.17861604	-0.623714	0.9999644	0.32213843	-0.65375313	0.8091056	-0.23764437	-0.38713662	0.91121492	0.29402165
132	0.524	-0.18273864	0.059925897	-0.056979128	-0.76768999	0.035692672	0.09227935	-0.31072002	0.099268075	-0.079984857	-0.90044992	0.065984303	0.10552264	-0.30713079	0.11887097	0.0037353494	-0.87249572	0.08303598	0.020450687	-0.37419132	0.069198944	-0.026967093	-0.95348681	0.045189201	0.038055409	-0.38577167	0.46910267	-0.086190353	-0.72413104	0.41461008	0.14757718	-0.40015619	0.45868054	0.03593871	-0.74791262	0.41915348	0.014156095	-0.59030661	0.80556825	-0.12968406	-0.66718633	0.78218712	0.21345805	-0.53185033	0.84678486	-0.07473099	-0.54667381	0.83245853	0.17270542	-0.72785995	0.90776312	0.04493469	-0.61865196	1.3239311	-0.13362472	-0.5923861	1.3113803	0.22385492	-0.68413209	1.3505427	0.051221307	-0.73228561	1.0324882	-0.1785443	-0.61667908	0.99753513	0.32244223	-0.65074594	0.80669844	-0.23826564	-0.37927323	0.91145298	0.29310039
133	0.528	-0.16916793	0.059564561	-0.056726511	-0.76772172	0.035682906	0.092281197	-0.29756451	0.098430482	-0.079924037	-0.90046099	0.065942883	0.10545047	-0.29413584	0.11818712	0.0038184671	-0.87232361	0.082786674	0.020262714	-0.36066624	0.068315382	-0.026509137	-0.95350811	0.045190173	0.037975154	-0.37926397	0.46632457	-0.085537086	-0.72101331	0.41334527	0.14739107	-0.39345557	0.45590132	0.03672262	-0.74508621	0.41792196	0.013951106	-0.5834841	0.80254656	-0.12961334	-0.6622855	0.78008397	0.21323986	-0.52490393	0.84425823	-0.074543254	-0.54098501	0.83017641	0.17305893	-0.72174087	0.90497431	0.044691634	-0.61263086	1.3213201	-0.13381618	-0.58691042	1.3089635	0.22375455	-0.67861241	1.3480065	0.05095525	-0.72722818	1.0304883	-0.17848428	-0.60962112	0.99502055	0.32273164	-0.64754521	0.80426241	-0.2388307	-0.37143828	0.91158921	0.29218485
134	0.532	-0.15595353	0.059309972	-0.056605007	-0.76772945	0.035690031	0.092292843	-0.28479968	0.09755848	-0.079854222	-0.90035118	0.065901153	0.10544175	-0.28149393	0.11743193	0.0039463399	-0.87211969	0.082578352	0.02015384	-0.34750506	0.067368856	-0.02621649	-0.95353271	0.045244599	0.037948349	-0.37277551	0.46341607	-0.084902655	-0.71784903	0.41205579	0.1472183	-0.38673277	0.45298913	0.037520444	-0.74205941	0.41659553	0.013813001	-0.57665527	0.79942128	-0.12955411	-0.65552665	0.77698451	0.21239399	-0.51797122	0.84163655	-0.074360643	-0.53526128	0.82792384	0.17328256	-0.71533534	0.90226538	0.04464699	-0.60658823	1.3186171	-0.13402046	-0.58144493	1.3064597	0.22365406	-0.6731302	1.3454398	0.050684204	-0.72218382	1.0284069	-0.17843333	-0.60248983	0.99242438	0.32301711	-0.64416274	0.80178193	-0.23934166	-0.36359146	0.91161635	0.29128176
135	0.536	-0.14310261	0.059139475	-0.056595145	-0.76774519	0.035685902	0.092309885	-0.27240198	0.096647632	-0.079765247	-0.90019139	0.065861865	0.1054829	-0.26918653	0.11658188	0.0041080783	-0.87190498	0.082421864	0.020114856	-0.334658	0.066254384	-0.026090976	-0.95355652	0.045360149	0.037971312	-0.36617321	0.46041391	-0.084246098	-0.71464413	0.41074062	0.14705961	-0.38000828	0.44995404	0.038316817	-0.73882867	0.41516944	0.01374162	-0.56976492	0.79621308	-0.12950349	-0.64700891	0.77293341	0.21098195	-0.5110335	0.83892781	-0.0741842	-0.52954463	0.82573025	0.17337964	-0.70876313	0.89963084	0.04457926	-0.60052612	1.315836	-0.13424454	-0.57598867	1.3038704	0.2235596	-0.66764655	1.3428716	0.050384093	-0.71705525	1.0262301	-0.17841805	-0.59524552	0.98974578	0.32330455	-0.64065144	0.79922539	-0.23981096	-0.35572176	0.91152688	0.29039041
136	0.54	-0.13061896	0.059016392	-0.056671848	-0.76777853	0.035662405	0.092334868	-0.26034507	0.095694771	-0.079656997	-0.90002064	0.065849766	0.10557266	-0.2572081	0.11562719	0.0043013756	-0.87169423	0.082326279	0.020124133	-0.322167	0.064950197	-0.026094088	-0.95357446	0.045547652	0.038040382	-0.35941661	0.45734842	-0.083560376	-0.71140562	0.40939833	0.14691551	-0.37329177	0.44680578	0.039101948	-0.73538962	0.41364255	0.013729952	-0.56276107	0.79293395	-0.12945866	-0.63770736	0.76844621	0.20934774	-0.50405827	0.83613784	-0.074001213	-0.52387502	0.82352774	0.17344841	-0.70206461	0.89704211	0.044435357	-0.59444758	1.3129872	-0.13449088	-0.57054296	1.3011979	0.22347949	-0.6620652	1.3403018	0.050009275	-0.71170745	1.023916	-0.17848239	-0.58795161	0.9869821	0.3236024	-0.63708841	0.79656262	-0.24026586	-0.34788946	0.91131886	0.28951412
137	0.544	-0.11849831	0.058901986	-0.056805555	-0.76782091	0.03562651	0.092369856	-0.2486114	0.09469612	-0.079528745	-0.89984045	0.065887671	0.10571286	-0.24556224	0.11456612	0.0045304213	-0.87147962	0.082302736	0.020158098	-0.31008397	0.063519858	-0.026122837	-0.95358558	0.045819775	0.038158128	-0.3526664	0.45420075	-0.082913889	-0.70814372	0.40802664	0.14678594	-0.36658095	0.44355421	0.039877778	-0.73174058	0.41201537	0.013769165	-0.55563133	0.78958678	-0.1294161	-0.62888604	0.76421074	0.20792314	-0.49700792	0.83327221	-0.073792465	-0.5182449	0.82113569	0.17366318	-0.69525093	0.89445819	0.044230177	-0.58835652	1.3100689	-0.13475881	-0.56510885	1.2984469	0.22341795	-0.65634334	1.3377042	0.049537122	-0.70614402	1.0214426	-0.17862857	-0.58077105	0.98413833	0.3239216	-0.633522	0.79378668	-0.24072588	-0.34014341	0.91099952	0.28865692
138	0.548	-0.10673358	0.058756776	-0.056966098	-0.76786337	0.035586963	0.092415051	-0.2371999	0.093641839	-0.079372633	-0.89963538	0.065982192	0.10590003	-0.23425387	0.11339845	0.0048022908	-0.87123984	0.082354174	0.020207671	-0.29837866	0.06201884	-0.0260656	-0.95358817	0.046187173	0.038324397	-0.3460688	0.45094201	-0.0823739	-0.70487264	0.4066226	0.14667038	-0.35987173	0.4402081	0.040650807	-0.72789511	0.41029423	0.013848101	-0.54841679	0.78616927	-0.12937097	-0.62129661	0.76063618	0.20696103	-0.48986805	0.83033689	-0.073547134	-0.51258339	0.81836095	0.17416695	-0.68833511	0.89183308	0.043985203	-0.58226058	1.3070767	-0.13505078	-0.55968565	1.2956227	0.22337109	-0.65059155	1.335064	0.049013038	-0.7005505	1.0188407	-0.17878811	-0.57378366	0.98122733	0.32425962	-0.62996187	0.79091115	-0.24119188	-0.33246181	0.9105786	0.28781799
